<svg id="Filled" height="512" viewBox="0 0 512 512" width="512" xmlns="http://www.w3.org/2000/svg"><path d="m376 224h32v176h-32z" fill="#fbe9d8" transform="matrix(-1 0 0 -1 784 624)"/><path d="m407.999 400 16 88h-64l16-88z" fill="#eb423f"/><path d="m448 248h-112l14.939-209.14a16 16 0 0 1 15.961-14.86h50.2a16 16 0 0 1 15.959 14.86z" fill="#d9c9b9"/><path d="m136 184h96v64h-96z" fill="#d9c9b9"/><path d="m304 336c0 39.8-20.207 99.812-31.9 131.2a31.98 31.98 0 0 1 -29.974 20.8h-116.252a31.98 31.98 0 0 1 -29.974-20.8c-11.693-31.388-31.9-91.4-31.9-131.2 0-80 72-88 72-88h96s72 8 72 88z" fill="#fbe9d8"/><path d="m304 336c0 32.72-13.66 79.1-25.02 112h-189.96c-9.65-27.96-20.97-65.66-24.15-96.43l33.41-16.71a64.009 64.009 0 0 1 58.97.89l41.71 22.46a64.013 64.013 0 0 0 64.7-2.35l40.21-25.59c.09 1.87.13 3.78.13 5.73z" fill="#eb423f"/><path d="m278.98 448c-2.45 7.12-4.8 13.61-6.88 19.2a31.98 31.98 0 0 1 -29.97 20.8h-116.26a31.98 31.98 0 0 1 -29.97-20.8c-2.08-5.59-4.43-12.08-6.88-19.2z" fill="#f0dfce"/><path d="m441.041 38.29a24.085 24.085 0 0 0 -23.941-22.29h-50.2a24.085 24.085 0 0 0 -23.938 22.29l-14.941 209.14a8 8 0 0 0 7.979 8.57h32v143.273l-15.872 87.3a8 8 0 0 0 7.872 9.427h64a8 8 0 0 0 7.871-9.431l-15.871-87.285v-143.284h32a8 8 0 0 0 7.979-8.57zm-71.456 441.71 13.091-72h18.646l13.091 72zm30.415-88h-16v-136h16zm-55.408-152 14.326-200.569a8.029 8.029 0 0 1 7.982-7.431h50.2a8.029 8.029 0 0 1 7.979 7.431l14.329 200.569z"/><path d="m242.126 496a40.152 40.152 0 0 0 37.474-26.012c12.1-32.488 32.4-93.094 32.4-133.988 0-44.864-21.515-68.624-39.562-80.656a100.74 100.74 0 0 0 -32.438-13.976v-57.368a8 8 0 0 0 -8-8h-96a8 8 0 0 0 -8 8v57.368a100.74 100.74 0 0 0 -32.438 13.976c-18.047 12.032-39.562 35.792-39.562 80.656 0 40.894 20.3 101.5 32.4 133.988a40.152 40.152 0 0 0 37.474 26.012zm-18.126-304v16h-16a8 8 0 0 0 0 16h16v16h-80v-16h32a8 8 0 0 0 0-16h-32v-16zm-87.5 64h95c5.676.769 58.8 9.6 64.074 70.067l-36.208 23.039a56.043 56.043 0 0 1 -56.611 2.059l-41.707-22.458a72.085 72.085 0 0 0 -66.339-1l-22.66 11.332c-.028-1.025-.049-2.039-.049-3.039 0-69.525 58.64-79.208 64.5-80zm-63.039 100.219 28.4-14.2a56.062 56.062 0 0 1 51.6.779l41.707 22.458a72.064 72.064 0 0 0 72.787-2.648l27.713-17.634c-1.966 28.939-12.626 66.082-22.4 95.029h-178.539c-8.544-25.316-17.769-56.903-21.268-83.784zm29.933 108.181c-.976-2.618-2.009-5.439-3.079-8.4h167.37c-1.07 2.965-2.1 5.786-3.079 8.4a24.081 24.081 0 0 1 -22.48 15.6h-116.252a24.081 24.081 0 0 1 -22.48-15.6z"/></svg>