<?xml version="1.0" encoding="UTF-8" standalone="no"?>
<svg
   xmlns:dc="http://purl.org/dc/elements/1.1/"
   xmlns:cc="http://creativecommons.org/ns#"
   xmlns:rdf="http://www.w3.org/1999/02/22-rdf-syntax-ns#"
   xmlns:svg="http://www.w3.org/2000/svg"
   xmlns="http://www.w3.org/2000/svg"
   xmlns:sodipodi="http://sodipodi.sourceforge.net/DTD/sodipodi-0.dtd"
   xmlns:inkscape="http://www.inkscape.org/namespaces/inkscape"
   sodipodi:docname="favicon.svg"
   inkscape:version="1.0 (4035a4fb49, 2020-05-01)"
   id="svg8"
   version="1.1"
   viewBox="0 0 82.434946 82.434944"
   height="82.434944mm"
   width="82.434944mm">
  <defs
     id="defs2">
    <rect
       x="36.083046"
       y="152.32002"
       width="154.24812"
       height="31.951399"
       id="rect836" />
  </defs>
  <sodipodi:namedview
     inkscape:window-maximized="1"
     inkscape:window-y="-8"
     inkscape:window-x="-8"
     inkscape:window-height="706"
     inkscape:window-width="1366"
     showgrid="false"
     inkscape:document-rotation="0"
     inkscape:current-layer="layer1"
     inkscape:document-units="mm"
     inkscape:cy="166.56164"
     inkscape:cx="84.70477"
     inkscape:zoom="0.8863225"
     inkscape:pageshadow="2"
     inkscape:pageopacity="0"
     borderopacity="1.0"
     bordercolor="#666666"
     pagecolor="#000000"
     id="base" />
  <metadata
     id="metadata5">
    <rdf:RDF>
      <cc:Work
         rdf:about="">
        <dc:format>image/svg+xml</dc:format>
        <dc:type
           rdf:resource="http://purl.org/dc/dcmitype/StillImage" />
        <dc:title />
      </cc:Work>
    </rdf:RDF>
  </metadata>
  <g
     id="layer1"
     inkscape:groupmode="layer"
     inkscape:label="Layer 1"
     transform="translate(-68.716885,-74.273151)">
    <circle
       r="41.217472"
       cy="115.49062"
       cx="109.93436"
       id="path849"
       style="opacity:0.99;fill:#ffffff;stroke:none;stroke-width:46.1578;stroke-linecap:round;stop-color:#000000" />
    <circle
       r="34.660416"
       cy="115.49062"
       cx="109.93436"
       id="path855"
       style="opacity:0.99;fill:#be6a15;fill-opacity:1;stroke:none;stroke-width:50.8738;stroke-linecap:round;stop-color:#000000" />
    <path
       id="path851"
       style="fill:#ffffff;stroke:none;stroke-width:0.999999px;stroke-linecap:butt;stroke-linejoin:miter;stroke-opacity:1"
       d="m 240.37109,66.396484 c -0.47332,-0.03021 -1.11132,0.244141 -1.9707,1.103516 l -5.25,14.5 c 0,0 -2.25,10.500006 -2.25,14 0,3.499994 1.95086,17.19453 -0.40234,25.36719 -1.59324,5.5333 -6.34766,12.63281 -8.34766,14.38281 -2,1.75 -6.11631,6.61876 -6.75,8.25 -0.67983,1.75 0.81631,4.5 1.25,4.5 l 6,3.75 c 0,0 4.25,2 3,6.25 -1.25,4.25 -2.5,8.00001 -0.75,8.5 1.09289,0.31219 3.05608,1.87279 3.78516,2.86719 0.43836,0.59788 0.28652,0.88523 -0.7461,2.01172 -2.75,3 -3.03906,4.37106 -0.78906,6.12109 2.25,1.75 5,4.5 5,4.5 l -1,12.25 c 0,0 -0.25001,4.75 5.5,4.75 h 30.75 c 0,0 17.75,2.25 19,14.25 1.25,12 1.5,26.5 1.5,26.5 0,0 -31.49997,13.99998 -36.75,15.5 -5.24999,1.49998 -39.19531,9.39258 -39.19531,9.39258 l 0.19531,8.35742 15.34375,5.21094 0.54688,-6.47461 19.44726,7.77734 43.83984,-2.47461 L 345.42188,263.75 376.75,237.28906 c -0.90737,-1.24654 -1.91436,-2.61846 -6.34961,-8.78906 -5.75002,-7.99997 -22.5,-32 -22.5,-32 0,0 -7.74999,-12.75 -19.25,-21.75 -11.50001,-9 -25.25,-20.25 -25.25,-20.25 l -16.75,-15.25 c 0,0 -16.21211,-14.38333 -22.89844,-22.85352 C 257.64847,108.66459 250.9004,98.750041 248.40039,91.5 c -2.50001,-7.250007 -6.75,-23.5 -6.75,-23.5 0,0 -0.23798,-1.537048 -1.2793,-1.603516 z"
       transform="matrix(0.26458333,0,0,0.26458333,36.803652,77.258331)" />
  </g>
</svg>
