<?xml version="1.0" encoding="UTF-8" standalone="no"?>
<svg
   xmlns:dc="http://purl.org/dc/elements/1.1/"
   xmlns:cc="http://creativecommons.org/ns#"
   xmlns:rdf="http://www.w3.org/1999/02/22-rdf-syntax-ns#"
   xmlns:svg="http://www.w3.org/2000/svg"
   xmlns="http://www.w3.org/2000/svg"
   xmlns:sodipodi="http://sodipodi.sourceforge.net/DTD/sodipodi-0.dtd"
   xmlns:inkscape="http://www.inkscape.org/namespaces/inkscape"
   sodipodi:docname="desenhando.svg"
   inkscape:version="1.0 (4035a4fb49, 2020-05-01)"
   id="svg8"
   version="1.1"
   viewBox="0 0 149.70943 99.250549"
   height="99.250549mm"
   width="149.70943mm">
  <defs
     id="defs2">
    <rect
       x="36.083046"
       y="152.32002"
       width="154.24812"
       height="31.951399"
       id="rect836" />
  </defs>
  <sodipodi:namedview
     inkscape:window-maximized="1"
     inkscape:window-y="-8"
     inkscape:window-x="-8"
     inkscape:window-height="706"
     inkscape:window-width="1366"
     showgrid="false"
     inkscape:document-rotation="0"
     inkscape:current-layer="layer1"
     inkscape:document-units="mm"
     inkscape:cy="155.27907"
     inkscape:cx="205.32171"
     inkscape:zoom="0.96057348"
     inkscape:pageshadow="2"
     inkscape:pageopacity="0"
     borderopacity="1.0"
     bordercolor="#666666"
     pagecolor="#000000"
     id="base" />
  <metadata
     id="metadata5">
    <rdf:RDF>
      <cc:Work
         rdf:about="">
        <dc:format>image/svg+xml</dc:format>
        <dc:type
           rdf:resource="http://purl.org/dc/dcmitype/StillImage" />
        <dc:title />
      </cc:Work>
    </rdf:RDF>
  </metadata>
  <g
     id="layer1"
     inkscape:groupmode="layer"
     inkscape:label="Layer 1"
     transform="translate(-36.803652,-77.258331)">
    <g
       style="font-style:normal;font-weight:normal;font-size:21.1667px;line-height:1.25;font-family:sans-serif;white-space:pre;shape-inside:url(#rect836);fill:#000000;fill-opacity:1;stroke:none"
       id="text834"
       transform="translate(0,5.2916669)"
       aria-label="Salão da Márcia">
      <path
         id="path839"
         style="font-style:normal;font-variant:normal;font-weight:normal;font-stretch:normal;font-size:21.1667px;font-family:Pacifico;-inkscape-font-specification:Pacifico;fill:#ffffff"
         d="m 43.005495,171.21721 q -2.815171,0 -4.508507,-1.05833 -1.693336,-1.0795 -1.693336,-3.28084 0,-1.16417 0.402167,-1.778 0.402168,-0.61384 1.185336,-0.61384 0.571501,0 0.931335,0.29634 0.359833,0.29633 0.359833,0.762 0,0.42333 -0.0635,0.74083 0,0.0847 -0.04233,0.29634 -0.02117,0.21166 -0.02117,0.4445 0,0.9525 0.952502,1.41817 0.973668,0.46566 2.709337,0.46566 1.79917,0 2.815172,-0.635 1.016001,-0.65616 1.016001,-1.82033 0,-0.71967 -0.465667,-1.22767 -0.465668,-0.52917 -1.164169,-0.86784 -0.698501,-0.35983 -1.968503,-0.86783 -1.629836,-0.635 -2.667004,-1.2065 -1.016002,-0.5715 -1.756836,-1.54517 -0.719668,-0.99484 -0.719668,-2.45534 0,-1.524 0.804335,-2.70934 0.825501,-1.18533 2.349503,-1.8415 1.545169,-0.65617 3.619506,-0.65617 1.545169,0 2.836338,0.46567 1.291169,0.4445 2.05317,1.37584 0.783168,0.93133 0.783168,2.286 0,1.3335 -0.402168,2.01084 -0.402167,0.67733 -1.185335,0.67733 -0.550334,0 -0.931335,-0.33867 -0.359834,-0.33866 -0.359834,-0.80433 0,-0.40217 0.0635,-0.74084 0.0635,-0.635 0.0635,-0.80433 0,-0.889 -0.867835,-1.35467 -0.867835,-0.46567 -2.159003,-0.46567 -1.820337,0 -2.794005,0.67734 -0.952501,0.65617 -0.952501,1.86267 0,0.80433 0.486834,1.37583 0.508,0.5715 1.248835,0.9525 0.740835,0.381 2.074337,0.91017 1.608669,0.65617 2.582337,1.18534 0.973668,0.52917 1.651003,1.43933 0.698501,0.91017 0.698501,2.24367 0,2.49767 -1.905003,3.85234 -1.883837,1.3335 -5.058842,1.3335 z" />
      <path
         id="path841"
         style="font-style:normal;font-variant:normal;font-weight:normal;font-stretch:normal;font-size:21.1667px;font-family:Pacifico;-inkscape-font-specification:Pacifico;fill:#ffffff"
         d="m 54.37962,171.15371 q -1.312335,0 -2.095503,-0.9525 -0.783168,-0.9525 -0.783168,-2.49767 0,-1.69333 0.783168,-3.19617 0.783168,-1.524 2.074337,-2.43417 1.312335,-0.93133 2.772837,-0.93133 0.465668,0 0.613835,0.1905 0.169333,0.16933 0.275167,0.635 0.444501,-0.0847 0.931335,-0.0847 1.037168,0 1.037168,0.74083 0,0.44451 -0.3175,2.11667 -0.486835,2.43418 -0.486835,3.38668 0,0.3175 0.148167,0.508 0.169334,0.1905 0.423334,0.1905 0.402168,0 0.973669,-0.508 0.5715,-0.52917 1.545169,-1.69334 0.254,-0.29633 0.571501,-0.29633 0.275167,0 0.423334,0.254 0.169333,0.254 0.169333,0.6985 0,0.84667 -0.402167,1.31233 -0.867835,1.07951 -1.841503,1.82034 -0.973668,0.74083 -1.883836,0.74083 -0.698501,0 -1.291169,-0.46566 -0.571501,-0.48684 -0.867835,-1.31234 -1.100668,1.778 -2.772838,1.778 z m 0.762002,-2.13783 q 0.465667,0 0.889001,-0.55034 0.423334,-0.55033 0.613834,-1.4605 l 0.783168,-3.89467 q -0.889001,0.0212 -1.651002,0.67733 -0.740835,0.635 -1.185336,1.69334 -0.4445,1.05833 -0.4445,2.24367 0,0.65617 0.254,0.97367 0.275167,0.3175 0.740835,0.3175 z" />
      <path
         id="path843"
         style="font-style:normal;font-variant:normal;font-weight:normal;font-stretch:normal;font-size:21.1667px;font-family:Pacifico;-inkscape-font-specification:Pacifico;fill:#ffffff"
         d="m 69.761528,166.32771 q 0.275167,0 0.423334,0.254 0.169333,0.254 0.169333,0.6985 0,0.84667 -0.402167,1.31233 -0.910168,1.12184 -1.98967,1.84151 -1.058335,0.71966 -2.413004,0.71966 -1.862669,0 -2.772837,-1.69333 -0.889002,-1.69334 -0.889002,-4.38151 0,-2.58234 0.656168,-5.88434 0.677334,-3.30201 1.968503,-5.67268 1.312335,-2.37067 3.111505,-2.37067 1.016002,0 1.587503,0.9525 0.592667,0.93134 0.592667,2.68818 0,2.51883 -1.397002,5.842 -1.397002,3.32318 -3.788839,6.58285 0.148166,0.86783 0.486834,1.24883 0.338667,0.35984 0.889001,0.35984 0.867835,0 1.524003,-0.48684 0.656167,-0.508 1.672169,-1.7145 0.254,-0.29633 0.571501,-0.29633 z m -2.603504,-13.08102 q -0.486834,0 -1.100669,1.75683 -0.613834,1.75684 -1.079502,4.36034 -0.465667,2.60351 -0.508,4.99534 1.502835,-2.4765 2.391837,-4.953 0.889001,-2.49767 0.889001,-4.55084 0,-1.60867 -0.592667,-1.60867 z" />
      <path
         id="path845"
         style="font-style:normal;font-variant:normal;font-weight:normal;font-stretch:normal;font-size:21.1667px;font-family:Pacifico;-inkscape-font-specification:Pacifico;fill:#ffffff"
         d="m 71.04013,171.15371 q -1.312336,0 -2.095504,-0.9525 -0.783168,-0.9525 -0.783168,-2.49767 0,-1.69333 0.783168,-3.19617 0.783168,-1.524 2.074337,-2.43417 1.312335,-0.93133 2.772838,-0.93133 0.465667,0 0.613834,0.1905 0.169334,0.16933 0.275167,0.635 0.444501,-0.0847 0.931335,-0.0847 1.037168,0 1.037168,0.74083 0,0.44451 -0.3175,2.11667 -0.486834,2.43418 -0.486834,3.38668 0,0.3175 0.148166,0.508 0.169334,0.1905 0.423334,0.1905 0.402168,0 0.973669,-0.508 0.571501,-0.52917 1.545169,-1.69334 0.254,-0.29633 0.571501,-0.29633 0.275167,0 0.423334,0.254 0.169333,0.254 0.169333,0.6985 0,0.84667 -0.402167,1.31233 -0.867835,1.07951 -1.841503,1.82034 -0.973668,0.74083 -1.883836,0.74083 -0.698501,0 -1.291169,-0.46566 -0.571501,-0.48684 -0.867835,-1.31234 -1.100668,1.778 -2.772837,1.778 z m 0.762001,-2.13783 q 0.465667,0 0.889001,-0.55034 0.423334,-0.55033 0.613834,-1.4605 l 0.783168,-3.89467 q -0.889001,0.0212 -1.651002,0.67733 -0.740835,0.635 -1.185335,1.69334 -0.444501,1.05833 -0.444501,2.24367 0,0.65617 0.254,0.97367 0.275167,0.3175 0.740835,0.3175 z m 4.29684,-9.22868 q -0.338667,0 -0.635001,-0.10584 -0.296334,-0.127 -0.762001,-0.4445 l -2.264837,-1.56633 -0.931335,1.3335 q -0.338667,0.46567 -0.952502,0.46567 -0.381,0 -0.656167,-0.21167 -0.254001,-0.23283 -0.254001,-0.61384 0,-0.48683 0.783168,-1.62983 0.486834,-0.6985 0.952502,-1.016 0.465667,-0.33867 1.016001,-0.33867 0.359834,0 0.635001,0.10583 0.296334,0.10584 0.762002,0.4445 l 2.264837,1.56634 0.931334,-1.3335 q 0.338668,-0.46567 0.952502,-0.46567 0.381,0 0.635001,0.23283 0.275167,0.21167 0.275167,0.59267 0,0.29634 -0.211667,0.67734 -0.1905,0.35983 -0.571501,0.9525 -0.486834,0.6985 -0.952501,1.03717 -0.465668,0.3175 -1.016002,0.3175 z" />
      <path
         id="path847"
         style="font-style:normal;font-variant:normal;font-weight:normal;font-stretch:normal;font-size:21.1667px;font-family:Pacifico;-inkscape-font-specification:Pacifico;fill:#ffffff"
         d="m 81.977028,171.15371 q -1.248835,0 -2.137837,-0.61383 -0.867835,-0.635 -1.312335,-1.651 -0.444501,-1.016 -0.444501,-2.18017 0,-1.60867 0.592668,-2.85751 0.613834,-1.27 1.651002,-1.9685 1.037169,-0.71967 2.328337,-0.71967 1.248836,0 2.137837,0.635 0.889001,0.61384 1.333502,1.62984 0.444501,1.016 0.444501,2.18017 0,1.60867 -0.613834,2.87867 -0.613835,1.24884 -1.67217,1.9685 -1.037168,0.6985 -2.30717,0.6985 z m 0.232834,-2.286 q 0.719667,0 1.206502,-0.78317 0.508,-0.78316 0.508,-2.286 0,-1.16417 -0.423334,-1.75684 -0.423334,-0.59266 -1.016001,-0.59266 -0.762002,0 -1.270002,0.78316 -0.486834,0.76201 -0.486834,2.28601 0,1.2065 0.423334,1.778 0.423334,0.5715 1.058335,0.5715 z" />
      <path
         id="path850"
         style="font-style:normal;font-variant:normal;font-weight:normal;font-stretch:normal;font-size:21.1667px;font-family:Pacifico;-inkscape-font-specification:Pacifico;fill:#ffffff"
         d="m 105.63611,166.32771 q 0.27516,0 0.42333,0.254 0.16933,0.254 0.16933,0.6985 0,0.84667 -0.40216,1.31233 -0.86784,1.05834 -1.90501,1.82034 -1.03716,0.74083 -2.05317,0.74083 -1.60866,0 -2.455333,-1.88383 -0.889001,1.12183 -1.566336,1.50283 -0.656167,0.381 -1.545169,0.381 -1.291168,0 -2.137836,-0.9525 -0.825502,-0.97366 -0.825502,-2.51883 0,-1.69334 0.719668,-3.13268 0.719668,-1.4605 1.968503,-2.37067 1.270002,-0.93133 2.836338,-1.10066 0.402167,-4.10634 1.524007,-7.00618 1.143,-2.92101 2.9845,-2.92101 0.91017,0 1.50284,0.8255 0.61383,0.82551 0.61383,2.49767 0,2.37068 -1.16417,5.54568 -1.16417,3.17501 -3.1115,6.51934 0.0847,1.22767 0.35983,1.75684 0.29633,0.52917 0.74084,0.52917 0.5715,0 1.16416,-0.508 0.59267,-0.508 1.58751,-1.69334 0.254,-0.29633 0.5715,-0.29633 z m -2.49767,-13.10219 q -0.40217,0 -0.80434,1.43934 -0.40217,1.41816 -0.6985,3.72533 -0.27517,2.30717 -0.40217,4.82601 2.37067,-5.16467 2.37067,-8.29734 0,-0.80434 -0.14816,-1.24884 -0.127,-0.4445 -0.3175,-0.4445 z m -6.096013,15.79036 q 0.402167,0 0.804334,-0.3175 0.402168,-0.33867 1.016002,-1.22767 -0.211667,-1.143 -0.211667,-2.56117 0,-0.508 0.04233,-1.651 -1.164168,0.35983 -1.947336,1.56633 -0.762001,1.18534 -0.762001,2.64584 0,1.54517 1.058335,1.54517 z" />
      <path
         id="path852"
         style="font-style:normal;font-variant:normal;font-weight:normal;font-stretch:normal;font-size:21.1667px;font-family:Pacifico;-inkscape-font-specification:Pacifico;fill:#ffffff"
         d="m 106.75497,171.15371 q -1.20651,0 -1.96851,-0.9525 -0.74083,-0.9525 -0.74083,-2.49767 0,-1.69333 0.78317,-3.19617 0.78316,-1.524 2.07433,-2.43417 1.31234,-0.93133 2.77284,-0.93133 0.46567,0 0.61384,0.1905 0.16933,0.16933 0.27516,0.635 0.40217,-0.0847 0.889,-0.0847 0.508,0 0.78317,0.254 0.27517,0.254 0.27517,0.71967 0,0.48683 -0.21167,1.69333 -0.23283,1.29117 -0.35983,2.47651 -0.127,1.16417 -0.127,2.62467 0,0.80433 -0.33867,1.16417 -0.3175,0.33866 -1.05833,0.33866 -0.71967,0 -1.07951,-0.33866 -0.33866,-0.35984 -0.33866,-1.143 l 0.0212,-0.33867 q -0.65616,1.82033 -2.26483,1.82033 z m 0.8255,-2.13783 q 0.59267,0 1.0795,-0.8255 0.48683,-0.8255 0.86783,-2.94217 l 0.40217,-2.13784 q -0.86783,0.0212 -1.60867,0.67733 -0.74083,0.635 -1.18533,1.69334 -0.4445,1.05833 -0.4445,2.24367 0,0.635 0.23283,0.97367 0.254,0.3175 0.65617,0.3175 z" />
      <path
         id="path854"
         style="font-style:normal;font-variant:normal;font-weight:normal;font-stretch:normal;font-size:21.1667px;font-family:Pacifico;-inkscape-font-specification:Pacifico;fill:#ffffff"
         d="m 123.55305,171.15371 q -0.78316,0 -1.12183,-0.33866 -0.33867,-0.35984 -0.33867,-1.3335 0,-0.65617 0.127,-1.67217 0.14817,-1.03717 0.46567,-2.83634 0.55033,-3.32317 0.86783,-5.75734 0.1905,-1.52401 0.1905,-2.54001 0,-0.9525 -0.6985,-0.9525 -0.55033,0 -1.3335,0.5715 -0.762,0.55034 -1.69333,1.778 -0.29634,0.40217 -0.65617,0.40217 -0.29634,0 -0.52917,-0.27517 -0.21167,-0.29633 -0.21167,-0.65616 0,-0.33867 0.127,-0.67734 0.14817,-0.35983 0.46567,-0.80433 1.016,-1.41817 2.26484,-2.18017 1.24883,-0.78317 2.49767,-0.78317 1.16417,0 1.778,0.74083 0.635,0.74084 0.635,2.15901 0,0.5715 -0.10583,1.35467 -0.10583,0.762 -0.1905,1.24883 -0.0847,0.48684 -0.127,0.67734 1.2065,-3.45018 2.70934,-4.80485 1.50283,-1.37583 3.302,-1.37583 1.37584,0 2.159,0.97367 0.80434,0.97367 0.80434,2.75167 0,0.6985 -0.1905,1.73567 1.05833,-2.92101 2.4765,-4.19101 1.41817,-1.27 3.25967,-1.27 1.48167,0 2.26484,0.9525 0.80434,0.9525 0.80434,2.66701 0,0.93133 -0.27517,2.26483 l -1.29117,6.05368 q -0.21167,1.05833 -0.21167,1.82033 0,0.88901 0.40217,1.33351 0.42333,0.4445 1.16417,0.4445 0.6985,0 1.35467,-0.46567 0.67733,-0.46567 1.5875,-1.54517 0.254,-0.29633 0.5715,-0.29633 0.27517,0 0.42334,0.254 0.16933,0.254 0.16933,0.6985 0,0.8255 -0.40217,1.31233 -1.10067,1.33351 -2.18017,1.94734 -1.0795,0.61383 -2.26484,0.61383 -1.79916,0 -2.81517,-1.05833 -1.016,-1.0795 -1.016,-2.87867 0,-1.24884 0.508,-3.61951 l 0.84667,-3.8735 q 0.0423,-0.1905 0.14817,-0.67734 0.10583,-0.48683 0.16933,-0.91017 0.0635,-0.4445 0.0635,-0.86783 0,-0.74084 -0.29633,-1.10067 -0.27517,-0.381 -0.80434,-0.381 -0.99483,0 -2.0955,1.29117 -1.0795,1.27 -2.07434,4.23334 -0.97367,2.96334 -1.5875,7.70468 -0.14817,1.27 -0.52917,1.7145 -0.35983,0.42333 -1.18533,0.42333 -0.71967,0 -1.05834,-0.33866 -0.3175,-0.33867 -0.3175,-1.27 0,-0.86784 0.23284,-2.26484 0.23283,-1.41817 0.59266,-3.32317 0.97367,-5.12234 0.97367,-6.60401 0,-0.80434 -0.3175,-1.18534 -0.29633,-0.381 -0.91017,-0.381 -1.03717,0 -2.13783,1.18534 -1.10067,1.16416 -2.15901,4.16984 -1.03717,2.9845 -1.73567,8.08568 -0.14816,1.0795 -0.4445,1.50283 -0.27516,0.42333 -1.10067,0.42333 z" />
      <path
         id="path856"
         style="font-style:normal;font-variant:normal;font-weight:normal;font-stretch:normal;font-size:21.1667px;font-family:Pacifico;-inkscape-font-specification:Pacifico;fill:#ffffff"
         d="m 148.34819,171.15371 q -1.31234,0 -2.0955,-0.9525 -0.78317,-0.9525 -0.78317,-2.49767 0,-1.69333 0.78317,-3.19617 0.78316,-1.524 2.07433,-2.43417 1.31234,-0.93133 2.77284,-0.93133 0.46567,0 0.61383,0.1905 0.16934,0.16933 0.27517,0.635 0.4445,-0.0847 0.93134,-0.0847 1.03716,0 1.03716,0.74083 0,0.44451 -0.3175,2.11667 -0.48683,2.43418 -0.48683,3.38668 0,0.3175 0.14817,0.508 0.16933,0.1905 0.42333,0.1905 0.40217,0 0.97367,-0.508 0.5715,-0.52917 1.54517,-1.69334 0.254,-0.29633 0.5715,-0.29633 0.27517,0 0.42333,0.254 0.16934,0.254 0.16934,0.6985 0,0.84667 -0.40217,1.31233 -0.86784,1.07951 -1.8415,1.82034 -0.97367,0.74083 -1.88384,0.74083 -0.6985,0 -1.29117,-0.46566 -0.5715,-0.48684 -0.86783,-1.31234 -1.10067,1.778 -2.77284,1.778 z m 0.762,-2.13783 q 0.46567,0 0.889,-0.55034 0.42334,-0.55033 0.61384,-1.4605 l 0.78316,-3.89467 q -0.889,0.0212 -1.651,0.67733 -0.74083,0.635 -1.18533,1.69334 -0.4445,1.05833 -0.4445,2.24367 0,0.65617 0.254,0.97367 0.27516,0.3175 0.74083,0.3175 z m 2.18017,-9.22868 q -0.29633,0 -0.52917,-0.21167 -0.21166,-0.23283 -0.21166,-0.55033 0,-0.14817 0.10583,-0.40217 l 1.9685,-4.40268 q 0.1905,-0.42333 0.48684,-0.61383 0.3175,-0.21167 0.6985,-0.21167 0.52917,0 0.93133,0.381 0.42334,0.381 0.42334,0.95251 0,0.59266 -0.46567,1.18533 l -2.73051,3.51367 q -0.27516,0.35984 -0.67733,0.35984 z" />
      <path
         id="path858"
         style="font-style:normal;font-variant:normal;font-weight:normal;font-stretch:normal;font-size:21.1667px;font-family:Pacifico;-inkscape-font-specification:Pacifico;fill:#ffffff"
         d="m 157.21075,171.15371 q -0.80433,0 -1.143,-0.84666 -0.3175,-0.84667 -0.3175,-2.70934 0,-2.75167 0.78317,-5.22818 0.1905,-0.61383 0.61383,-0.889 0.44451,-0.29633 1.22767,-0.29633 0.42334,0 0.59267,0.10583 0.16933,0.10584 0.16933,0.40217 0,0.33867 -0.3175,1.524 -0.21166,0.84667 -0.33866,1.48167 -0.127,0.635 -0.21167,1.56634 0.6985,-1.82034 1.56634,-2.96334 0.86783,-1.143 1.69333,-1.62984 0.84667,-0.48683 1.54517,-0.48683 1.37584,0 1.37584,1.37583 0,0.27517 -0.1905,1.33351 -0.16934,0.84666 -0.16934,1.05833 0,0.74084 0.52917,0.74084 0.59267,0 1.524,-0.93134 0.27517,-0.27517 0.5715,-0.27517 0.27517,0 0.42334,0.254 0.16933,0.23284 0.16933,0.63501 0,0.78316 -0.42333,1.22766 -0.59267,0.61384 -1.39701,1.05834 -0.78316,0.42333 -1.67216,0.42333 -1.12184,0 -1.71451,-0.5715 -0.5715,-0.5715 -0.5715,-1.54517 0,-0.3175 0.0635,-0.635 0.0423,-0.42333 0.0423,-0.5715 0,-0.33867 -0.23284,-0.33867 -0.3175,0 -0.84667,0.71967 -0.508,0.6985 -1.016,1.86267 -0.508,1.16417 -0.8255,2.45534 -0.23283,0.99483 -0.55033,1.35467 -0.29634,0.33866 -0.95251,0.33866 z" />
      <path
         id="path860"
         style="font-style:normal;font-variant:normal;font-weight:normal;font-stretch:normal;font-size:21.1667px;font-family:Pacifico;-inkscape-font-specification:Pacifico;fill:#ffffff"
         d="m 169.38326,171.15371 q -2.07434,0 -3.23851,-1.16416 -1.143,-1.18534 -1.143,-3.11151 0,-1.7145 0.67734,-3.00567 0.67733,-1.29117 1.75683,-1.98967 1.0795,-0.6985 2.26484,-0.6985 1.16417,0 1.79917,0.6985 0.65617,0.67733 0.65617,1.75684 0,0.889 -0.40217,1.50283 -0.381,0.61384 -1.016,0.61384 -0.40217,0 -0.65617,-0.1905 -0.23283,-0.1905 -0.23283,-0.52917 0,-0.14817 0.0423,-0.33867 0.0423,-0.1905 0.0635,-0.27517 0.10583,-0.3175 0.10583,-0.59266 0,-0.27517 -0.14816,-0.42334 -0.127,-0.14816 -0.381,-0.14816 -0.48684,0 -0.91017,0.4445 -0.42334,0.42333 -0.67734,1.16416 -0.254,0.74084 -0.254,1.62984 0,2.45534 2.13784,2.45534 0.86783,0 1.86267,-0.5715 1.016,-0.59267 1.98967,-1.75684 0.254,-0.29633 0.5715,-0.29633 0.27517,0 0.42333,0.254 0.16934,0.254 0.16934,0.6985 0,0.80433 -0.40217,1.31233 -0.99484,1.22767 -2.39184,1.90501 -1.37583,0.65616 -2.667,0.65616 z" />
      <path
         id="path862"
         style="font-style:normal;font-variant:normal;font-weight:normal;font-stretch:normal;font-size:21.1667px;font-family:Pacifico;-inkscape-font-specification:Pacifico;fill:#ffffff"
         d="m 175.88541,159.7872 q -0.889,0 -1.3335,-0.40217 -0.4445,-0.42333 -0.4445,-1.16417 0,-0.74083 0.5715,-1.22767 0.59267,-0.508 1.4605,-0.508 0.78317,0 1.27,0.381 0.48684,0.381 0.48684,1.0795 0,0.84667 -0.55034,1.35467 -0.55033,0.48684 -1.4605,0.48684 z m -0.16933,11.36651 q -1.37584,0 -2.01084,-0.97366 -0.61383,-0.97367 -0.61383,-2.58234 0,-0.9525 0.23283,-2.43417 0.254,-1.50284 0.635,-2.79401 0.1905,-0.67733 0.508,-0.93133 0.3175,-0.254 1.016,-0.254 1.07951,0 1.07951,0.71967 0,0.52916 -0.40217,2.45533 -0.508,2.32834 -0.508,3.15384 0,0.635 0.16933,0.97367 0.16934,0.33867 0.5715,0.33867 0.381,0 0.9525,-0.52917 0.57151,-0.52917 1.52401,-1.67217 0.254,-0.29633 0.5715,-0.29633 0.27517,0 0.42333,0.254 0.16934,0.254 0.16934,0.6985 0,0.84667 -0.40217,1.31233 -2.09551,2.56117 -3.91584,2.56117 z" />
      <path
         id="path864"
         style="font-style:normal;font-variant:normal;font-weight:normal;font-stretch:normal;font-size:21.1667px;font-family:Pacifico;-inkscape-font-specification:Pacifico;fill:#ffffff"
         d="m 180.75573,171.15371 q -1.2065,0 -1.9685,-0.9525 -0.74084,-0.9525 -0.74084,-2.49767 0,-1.69333 0.78317,-3.19617 0.78317,-1.524 2.07434,-2.43417 1.31233,-0.93133 2.77283,-0.93133 0.46567,0 0.61384,0.1905 0.16933,0.16933 0.27517,0.635 0.40216,-0.0847 0.889,-0.0847 0.508,0 0.78316,0.254 0.27517,0.254 0.27517,0.71967 0,0.48683 -0.21167,1.69333 -0.23283,1.29117 -0.35983,2.47651 -0.127,1.16417 -0.127,2.62467 0,0.80433 -0.33867,1.16417 -0.3175,0.33866 -1.05833,0.33866 -0.71967,0 -1.0795,-0.33866 -0.33867,-0.35984 -0.33867,-1.143 l 0.0212,-0.33867 q -0.65617,1.82033 -2.26484,1.82033 z m 0.8255,-2.13783 q 0.59267,0 1.0795,-0.8255 0.48684,-0.8255 0.86784,-2.94217 l 0.40216,-2.13784 q -0.86783,0.0212 -1.60866,0.67733 -0.74084,0.635 -1.18534,1.69334 -0.4445,1.05833 -0.4445,2.24367 0,0.635 0.23283,0.97367 0.254,0.3175 0.65617,0.3175 z" />
    </g>
    <circle
       r="38.232292"
       cy="115.49062"
       cx="109.93436"
       id="path849"
       style="opacity:0.99;fill:#ffffff;stroke:none;stroke-width:42.8148;stroke-linecap:round;stop-color:#000000" />
    <circle
       r="34.660416"
       cy="115.49062"
       cx="109.93436"
       id="path855"
       style="opacity:0.99;fill:#be6a15;fill-opacity:1;stroke:none;stroke-width:50.8738;stroke-linecap:round;stop-color:#000000" />
    <path
       id="path851"
       style="fill:#ffffff;stroke:none;stroke-width:0.999999px;stroke-linecap:butt;stroke-linejoin:miter;stroke-opacity:1"
       d="M 240.37109 66.396484 C 239.89777 66.366272 239.25977 66.640625 238.40039 67.5 L 233.15039 82 C 233.15039 82 230.90039 92.500006 230.90039 96 C 230.90039 99.499994 232.85125 113.19453 230.49805 121.36719 C 228.90481 126.90049 224.15039 134 222.15039 135.75 C 220.15039 137.5 216.03408 142.36876 215.40039 144 C 214.72056 145.75 216.2167 148.5 216.65039 148.5 L 222.65039 152.25 C 222.65039 152.25 226.90039 154.25 225.65039 158.5 C 224.40039 162.75 223.15039 166.50001 224.90039 167 C 225.99328 167.31219 227.95647 168.87279 228.68555 169.86719 C 229.12391 170.46507 228.97207 170.75242 227.93945 171.87891 C 225.18945 174.87891 224.90039 176.24997 227.15039 178 C 229.40039 179.75 232.15039 182.5 232.15039 182.5 L 231.15039 194.75 C 231.15039 194.75 230.90038 199.5 236.65039 199.5 L 267.40039 199.5 C 267.40039 199.5 285.15039 201.75 286.40039 213.75 C 287.65039 225.75 287.90039 240.25 287.90039 240.25 C 287.90039 240.25 256.40042 254.24998 251.15039 255.75 C 245.9004 257.24998 211.95508 265.14258 211.95508 265.14258 L 212.15039 273.5 L 227.49414 278.71094 L 228.04102 272.23633 L 247.48828 280.01367 L 291.32812 277.53906 L 345.42188 263.75 L 376.75 237.28906 C 375.84263 236.04252 374.83564 234.6706 370.40039 228.5 C 364.65037 220.50003 347.90039 196.5 347.90039 196.5 C 347.90039 196.5 340.1504 183.75 328.65039 174.75 C 317.15038 165.75 303.40039 154.5 303.40039 154.5 L 286.65039 139.25 C 286.65039 139.25 270.43828 124.86667 263.75195 116.39648 C 257.64847 108.66459 250.9004 98.750041 248.40039 91.5 C 245.90038 84.249993 241.65039 68 241.65039 68 C 241.65039 68 241.41241 66.462952 240.37109 66.396484 z "
       transform="matrix(0.26458333,0,0,0.26458333,36.803652,77.258331)" />
  </g>
</svg>
